<?xml version="1.0" encoding="UTF-8"?>
<svg id="Layer_1" data-name="Layer 1" xmlns="http://www.w3.org/2000/svg" viewBox="0 0 201.46 37.92">
  <defs>
    <style>
      .cls-1 {
        fill: #231f20;
      }

      .cls-2 {
        fill: #ea0029;
      }
    </style>
  </defs>
  <g>
    <polyline class="cls-2" points="42.85 4.23 42.85 0 27.5 0 27.5 4.23 42.85 4.23"/>
    <path class="cls-1" d="M14.71,37.04c-.82.43-2.28.87-4.24.87-6.29,0-10.47-4.65-10.47-13.36,0-7.93,4.39-13.88,11.41-13.88,1.56,0,2.58.38,3.3.76v4.61c-.57-.23-1.91-.59-3.18-.59-3.78,0-5.73,4.11-5.73,8.99,0,5.41,2.18,8.72,5.73,8.72,1.07,0,2.33-.21,3.18-.63v4.52"/>
    <path class="cls-1" d="M37.13,33.27v-9.34c-2.25.04-6.35.66-6.35,5.27,0,2.99,1.59,4.07,2.87,4.07h3.48ZM42.85,31.16c0,2.06.13,4.67.41,6.43h-11.35c-3.8,0-6.66-3.15-6.66-7.79,0-6.81,5.75-9.68,11.74-9.73v-.47c0-2.76-1.08-4.7-3.96-4.7-1.89,0-4.06.55-5.49,1.47v-3.96c1.3-.82,3.53-1.89,6.76-1.89,6.82,0,8.56,4.43,8.56,10.07v10.59"/>
    <path class="cls-1" d="M68.38,33.25h-3.38c-2.44,0-3.85-3.67-3.85-8.96,0-4.73,1.05-8.91,3.99-8.91,1.71,0,2.9,1.88,3.15,4.01.08.54.08,1.13.08,1.63v12.23h0ZM74.17,31.17V2.71h-5.79v10.63h-.11c-.84-1.83-2.45-2.88-4.63-2.88-4.28,0-8.27,4.46-8.27,13.75,0,7.98,2.88,13.38,8,13.38h11.21c-.28-1.75-.4-4.36-.4-6.42"/>
    <path class="cls-1" d="M99.5,21.74c.04-4.25-1.35-6.78-3.41-6.78-2.52,0-3.66,3.67-3.77,6.78h7.18ZM92.3,25.87c.06,5.92,2.81,7.53,5.9,7.53,1.94,0,3.98-.43,5.16-.94v4.18c-1.66.78-3.8,1.24-6.22,1.24-6.83,0-10.49-4.95-10.49-13.15,0-8.76,4.2-14.09,9.85-14.09s8.38,5.03,8.38,12.13c0,1.51-.07,2.36-.16,3.09h-12.43"/>
    <path class="cls-1" d="M123.26,15.56v22.03h-5.8v-19.02c0-2.99-.15-5.33-.24-7.68h11.44c4.42,0,7.04,3.21,7.04,9.35v17.35h-5.81v-16.79c0-2.65-.56-5.23-3.09-5.23h-3.54"/>
    <path class="cls-1" d="M162.72,37.04c-.82.43-2.29.87-4.24.87-6.29,0-10.46-4.65-10.46-13.36,0-7.93,4.39-13.88,11.4-13.88,1.56,0,2.58.38,3.3.76v4.61c-.58-.23-1.91-.59-3.19-.59-3.78,0-5.72,4.12-5.72,8.99,0,5.41,2.18,8.72,5.72,8.72,1.07,0,2.33-.21,3.19-.63v4.52"/>
    <path class="cls-1" d="M178.67,21.74c.12-3.11,1.26-6.78,3.78-6.78,2.06,0,3.46,2.53,3.41,6.78h-7.19ZM191.23,22.77c0-7.1-2.81-12.13-8.37-12.13s-9.86,5.33-9.86,14.09c0,8.2,3.67,13.15,10.49,13.15,2.42,0,4.57-.47,6.22-1.24v-4.18c-1.18.51-3.23.94-5.16.94-3.09,0-5.84-1.61-5.9-7.53h12.44c.09-.74.15-1.59.15-3.1"/>
  </g>
  <path class="cls-1" d="M194.02,3.95c0-2.05,1.67-3.72,3.72-3.72s3.72,1.67,3.72,3.72-1.67,3.72-3.72,3.72-3.72-1.67-3.72-3.72ZM200.55,3.95c0-1.74-1.26-3-2.81-3s-2.81,1.26-2.81,3,1.26,3,2.81,3,2.81-1.26,2.81-3ZM196.31,1.82h1.57c1.01,0,1.56.35,1.56,1.24,0,.72-.41,1.07-1.1,1.13l1.13,1.85h-.8l-1.09-1.82h-.47v1.82h-.78V1.82ZM197.09,3.63h.69c.46,0,.87-.06.87-.63,0-.49-.46-.58-.86-.58h-.7v1.21Z"/>
</svg>